{"title":"Bad Country 2014 True.1080p.BluRay.5.1 x264 . NVEE","uid":9902071,"size":2276443903,"categoryP":"video","categoryS":"hd___movies","magnet":"?xt=urn:btih:6da7ae0dae0da0402f75518dda003b508ac06094&amp;dn=Bad+Country+2014+True.1080p.BluRay.5.1+x264+.+NVEE&amp;tr=udp%3A%2F%2Ftracker.openbittorrent.com%3A80&amp;tr=udp%3A%2F%2Fopen.demonii.com%3A1337&amp;tr=udp%3A%2F%2Ftracker.coppersurfer.tk%3A6969&amp;tr=udp%3A%2F%2Fexodus.desync.com%3A6969","seeders":0,"leechers":0,"uploader":".NVEE","files":-1,"time":1396743635,"description":"\n\nNobody cares for screenshots,... If you know my encodes, you know it's legit anyways.\n\n\nFULL_INFOs\n\n99.99% --- SYNCED GUARANTEED \n\n&quot;Totally scrutinized / analyzed to be a verified torrent.&quot;\n___________________________________________\n\nSource : Blu-ray ~ 1080p\n\n\n\nSpoken Language : English\n\nAudio : 6 ~ Channels Only\n\n\nSubs Info : Nobody cares for subtitles,... (Google is your friend)\n\nAll .srt &amp; .idx subs can be turned On/Off\n_____________________________________\n\nIMDb?\n\n\nWhy bother,... You will find a link If you want to.\n---------------------------------------------------------------------------------\n\nGeneral Metadata\n\nComplete name : Bad Country 2014.True.1080p.BluRay.5.1.x264 . NVEE.mp4\nFormat : MPEG-4\nFormat profile : Base Media\nCodec ID : isom\nFile size : 2.12 GiB\nDuration : 1h 44mn\nOverall bit rate : 2 908 Kbps\nEncoded date : UTC 2014-04-06 09:32:28\nTagged date : UTC 2014-04-06 09:32:28\n\n\nVideo\n\nID : 1\nFormat : AVC\nFormat/Info : Advanced Video Codec\nFormat profile : &lt;a class=&quot;__cf_email__&quot; href=&quot;/cdn-cgi/l/email-protection&quot; data-cfemail=&quot;521a3b353a121e667c62&quot;&gt;[email&amp;#160;protected]&lt;/a&gt;&lt;script cf-hash='f9e31' type=&quot;text/javascript&quot;&gt;\n/* &lt;![CDATA[ */!function(){try{var t=&quot;currentScript&quot;in document?document.currentScript:function(){for(var t=document.getElementsByTagName(&quot;script&quot;),e=t.length;e--;)if(t[e].getAttribute(&quot;cf-hash&quot;))return t[e]}();if(t&amp;&amp;t.previousSibling){var e,r,n,i,c=t.previousSibling,a=c.getAttribute(&quot;data-cfemail&quot;);if(a){for(e=&quot;&quot;,r=parseInt(a.substr(0,2),16),n=2;a.length-n;n+=2)i=parseInt(a.substr(n,2),16)^r,e+=String.fromCharCode(i);e=document.createTextNode(e),c.parentNode.replaceChild(e,c)}}}catch(u){}}();/* ]]&gt; */&lt;/script&gt;\nFormat settings, CABAC : Yes\nFormat settings, ReFrames : 3 frames\nCodec ID : avc1\nCodec ID/Info : Advanced Video Coding\nDuration : 1h 44mn\nBit rate : 2 458 Kbps\nMaximum bit rate : 14.2 Mbps\nWidth : 1 920 pixels\nHeight : 1 080 pixels\nDisplay aspect ratio : 16:9\nFrame rate mode : Constant\nFrame rate : 23.976 fps\nColor space : YUV\nChroma subsampling : 4:2:0\nBit depth : 8 bits\nScan type : Progressive\nBits/(Pixel*Frame) : 0.049\nStream size : 1.79 GiB (85%)\nWriting library : x264 core 138 r2358 9e941d1\nEncoded from Physical Blu-ray\n\n\nAudio\n\nID : 2\nFormat : AC-3\nFormat/Info : Audio Coding 3\nMode extension : CM (complete main)\nFormat settings, Endianness : Big\nCodec ID : ac-3\nDuration : 1h 44mn\nBit rate mode : Constant\nBit rate : 448 Kbps\nChannel(s) : 6 channels\nChannel positions : Front: L C R, Side: L R, LFE\nSampling rate : 48.0 KHz\nBit depth : 16 bits\nCompression mode : Lossy\nStream size : 334 MiB (15%)\nLanguage : English\nEncoded date : UTC 2014-04-06 09:42:07\nTagged date : UTC 2014-04-06 09:42:45\nEncoded from Physical Blu-ray 6 Channel audio &quot;Always&quot;.\n\n\nSynopsis\n\nWhy bother,... Nobody gives a shit.\n\n\nEnj0y !","torrent":{"xt":"urn:btih:6da7ae0dae0da0402f75518dda003b508ac06094","amp;dn":"Bad+Country+2014+True.1080p.BluRay.5.1+x264+.+NVEE","amp;tr":["udp%3A%2F%2Ftracker.openbittorrent.com%3A80","udp%3A%2F%2Fopen.demonii.com%3A1337","udp%3A%2F%2Ftracker.coppersurfer.tk%3A6969","udp%3A%2F%2Fexodus.desync.com%3A6969"],"infoHash":"6da7ae0dae0da0402f75518dda003b508ac06094","infoHashBuffer":{"type":"Buffer","data":[109,167,174,13,174,13,160,64,47,117,81,141,218,0,59,80,138,192,96,148]},"announce":[],"urlList":[]}}